<mxfile host="app.diagrams.net" modified="2024-01-29T06:35:12.186Z" agent="Mozilla/5.0 (X11; Linux x86_64) AppleWebKit/537.36 (KHTML, like Gecko) Chrome/109.0.0.0 Safari/537.36" version="23.0.2" etag="cqLQWTcoqCcUJC_LH2Ep" type="github">
  <diagram name="Page-1" id="5-DjrsFocMByZr_6K7mZ">
    <mxGraphModel>
      <root>
        <mxCell id="0" />
        <mxCell id="1" parent="0" />
      </root>
    </mxGraphModel>
  </diagram>
</mxfile>
